<?xml version="1.0" encoding="UTF-8"?>
<!DOCTYPE svg PUBLIC "-//W3C//DTD SVG 1.1//EN" "http://www.w3.org/Graphics/SVG/1.1/DTD/svg11.dtd">
<!-- Creator: CorelDRAW X6 -->
<svg xmlns="http://www.w3.org/2000/svg" xml:space="preserve" width="165.787mm" height="58.8622mm" version="1.1" style="shape-rendering:geometricPrecision; text-rendering:geometricPrecision; image-rendering:optimizeQuality; fill-rule:evenodd; clip-rule:evenodd"
viewBox="0 0 16563 5880"
 xmlns:xlink="http://www.w3.org/1999/xlink">
 <defs>
  <style type="text/css">
   <![CDATA[
    .str3 {stroke:black;stroke-width:19.9804;stroke-linejoin:round}
    .str0 {stroke:black;stroke-width:24.9755}
    .str1 {stroke:black;stroke-width:24.9755;stroke-linejoin:round}
    .str2 {stroke:black;stroke-width:19.9804;stroke-linejoin:round}
    .fil1 {fill:none}
    .fil0 {fill:none;fill-rule:nonzero}
   ]]>
  </style>
 </defs>
 <g id="Warstwa_x0020_1">
  <metadata id="CorelCorpID_0Corel-Layer"/>
  <g id="_792822608">
   <path class="fil0 str0" d="M14577 4388l425 1014 -137 0 -107 -246 -548 0 -104 246 -137 0 425 -1014 184 0zm-92 106l-232 558 465 0 -232 -558z"/>
   <path class="fil0 str0" d="M9881 5402l0 -1014 447 0c76,0 140,11 192,32 51,21 93,49 124,82 31,34 54,70 68,109 14,39 21,77 21,114 0,36 -7,74 -21,115 -14,41 -36,79 -68,114 -31,35 -73,63 -124,86 -51,23 -115,34 -192,34l-321 0 0 328 -127 0zm127 -432l347 0c73,0 133,-21 180,-62 47,-42 71,-102 71,-180 0,-80 -24,-139 -71,-178 -47,-39 -107,-58 -180,-58l-347 0 0 478z"/>
   <path class="fil0 str0" d="M8634 4388l425 1014 -137 0 -107 -246 -548 0 -104 246 -137 0 425 -1014 184 0zm-92 106l-232 558 465 0 -232 -558z"/>
   <path class="fil0 str1" d="M9335 2886c-105,-52 -189,-117 -253,-195 -64,-78 -109,-164 -137,-258 -27,-94 -41,-183 -41,-266 0,-89 14,-184 41,-283 27,-99 73,-190 137,-273 64,-83 148,-152 253,-206 105,-55 234,-82 389,-82 155,0 285,27 389,82 105,55 189,123 253,206 64,83 109,174 137,273 27,99 41,194 41,283 0,89 -16,184 -46,284 -31,100 -83,190 -156,270l265 10 0 229 -710 0c-55,0 -107,0 -161,0 -131,1 -282,-15 -400,-74zm-3049 -1534l314 0 0 1598 -314 0 0 -1598zm1113 423l0 1175 -317 0 0 -1598 437 0 707 1268 0 -1268 314 0 0 1598 -475 0 -666 -1175zm4275 1188c-153,0 -229,-24 -328,-71 -99,-47 -178,-107 -235,-180 -57,-73 -97,-154 -120,-243 -23,-89 -34,-176 -34,-260l0 -858 314 0 0 852c0,73 9,141 26,204 17,63 44,117 81,164 36,46 83,83 141,109 57,26 76,40 156,40 80,0 98,-13 156,-40 57,-26 104,-63 141,-109 36,-46 63,-101 81,-164 17,-63 26,-131 26,-204l0 -852 314 0 0 858c0,84 -11,170 -34,260 -23,89 -63,170 -120,243 -57,73 -136,133 -235,180 -99,47 -175,71 -328,71zm1195 -1612l314 0 0 1598 -314 0 0 -1598zm1414 1612c-84,0 -137,-8 -221,-25 -84,-16 -159,-44 -225,-82 -66,-38 -122,-87 -167,-148 -45,-60 -70,-134 -75,-221l317 0c9,53 29,95 59,126 30,31 65,54 105,70 40,15 82,26 124,30 43,5 51,7 86,7 66,0 94,-2 146,-7 52,-5 96,-15 131,-31 36,-16 62,-40 81,-70 18,-30 27,-71 27,-122 0,-36 -13,-66 -40,-89 -26,-23 -61,-42 -105,-59 -44,-16 -93,-30 -149,-41 -115,-23 -232,-56 -347,-83 -81,-19 -154,-46 -220,-82 -66,-36 -120,-82 -163,-139 -43,-57 -64,-132 -64,-223 0,-64 12,-123 36,-178 24,-55 64,-102 120,-143 56,-41 130,-73 221,-97 91,-24 173,-36 306,-36 86,0 140,9 224,26 84,17 159,45 225,83 66,38 121,88 163,149 42,61 63,135 63,223l-317 0c0,-47 -11,-86 -33,-115 -22,-29 -51,-52 -87,-70 -36,-17 -78,-29 -124,-36 -46,-6 -63,-10 -110,-10 -76,0 -110,6 -161,19 -51,13 -92,29 -123,48 -31,19 -53,41 -67,66 -14,25 -20,48 -20,70 0,40 14,73 41,98 27,25 64,46 109,63 71,25 213,61 289,76 73,14 148,33 224,55 76,22 146,50 209,83 63,34 114,76 154,126 40,50 60,112 60,184 0,78 -13,148 -40,210 -26,62 -69,115 -127,158 -58,44 -134,77 -227,100 -93,23 -176,34 -308,34zm1080 -1612l1164 0 0 251 -850 0 0 437 765 0 0 243 -765 0 0 423 850 0 0 243 -1164 0 0 -1598zm-5638 1369c155,0 278,-50 369,-149 91,-99 137,-234 137,-406 0,-89 -12,-170 -36,-243 -24,-73 -58,-135 -102,-187 -45,-52 -98,-92 -160,-120 -62,-28 -131,-42 -208,-42 -76,0 -146,14 -208,42 -62,28 -115,68 -160,120 -45,52 -79,114 -102,187 -24,73 -36,154 -36,243 0,171 46,306 137,406 91,99 214,149 369,149z"/>
   <polygon class="fil0 str0" points="6285,3741 6285,3614 16541,3614 16541,3741 "/>
   <polygon class="fil0 str0" points="15824,4388 15950,4388 15950,5298 16550,5298 16550,5402 15824,5402 "/>
   <polygon class="fil0 str0" points="13372,4492 13015,4492 13015,5402 12889,5402 12889,4492 12532,4492 12532,4388 13372,4388 "/>
   <polygon class="fil0 str0" points="11573,4388 11699,4388 11699,5402 11573,5402 "/>
   <path class="fil0 str0" d="M6285 4894c0,-58 9,-117 27,-179 18,-61 48,-117 89,-167 42,-50 96,-91 163,-123 67,-32 150,-48 248,-48 71,0 133,7 187,22 54,14 101,34 140,60 39,25 71,55 96,88 25,33 43,68 55,107l-135 0c-7,-31 -21,-57 -42,-79 -21,-21 -47,-39 -77,-53 -31,-14 -65,-24 -104,-30 -39,-6 -79,-10 -120,-10 -57,0 -110,9 -159,28 -49,18 -92,46 -127,81 -36,36 -64,79 -84,131 -20,51 -30,110 -30,174 0,65 10,123 30,174 20,51 48,95 84,130 36,35 78,62 127,81 49,18 102,28 159,28 42,0 82,-3 120,-10 39,-6 73,-16 104,-30 31,-14 56,-31 77,-53 21,-21 35,-48 42,-79l135 0c-12,38 -30,74 -55,107 -25,33 -57,62 -96,88 -39,25 -86,45 -140,60 -54,14 -117,22 -187,22 -98,0 -181,-16 -248,-48 -67,-32 -121,-73 -163,-123 -42,-50 -71,-106 -89,-167 -18,-61 -27,-121 -27,-180z"/>
   <polygon class="fil1 str2" points="2700,1130 2675,936 2800,703 3172,468 3478,452 3565,597 3885,677 4052,657 4149,711 4072,751 4061,957 3541,918 3483,1042 3836,1281 3818,1443 3718,1304 3343,1130 3292,1253 3579,1944 3645,2517 3517,2874 3557,3037 4250,3051 4523,3081 4659,3365 4587,3420 4511,3283 4317,3186 4183,3265 4166,3198 3334,3449 3326,3234 2761,3514 2466,3934 2463,4237 2368,4577 1785,5093 1989,5660 2277,5685 2544,5870 1681,5869 1681,5635 1339,5093 1423,4916 1675,4313 1610,3942 1146,3439 1142,2987 682,2639 635,2774 458,2390 899,2518 741,2574 1277,2891 1370,3229 1639,3279 1905,2946 2059,2625 1640,2075 1006,1761 855,1241 10,791 2114,857 2285,1959 2426,2060 2802,1740 "/>
   <polygon class="fil1 str2" points="3720,1066 3975,1205 4114,1153 4304,1081 4021,1112 3758,954 3546,932 3500,1038 3537,1062 "/>
   <polygon class="fil1 str2" points="3720,1066 3975,1205 4114,1153 4304,1081 4021,1112 3758,934 3546,918 3485,1038 3527,1066 "/>
   <polyline class="fil1 str3" points="2114,857 1861,1832 1640,2075 "/>
   <polyline class="fil1 str3" points="2059,2625 2426,2060 2283,1957 1861,1832 1532,1322 1174,1142 1081,821 "/>
   <polyline class="fil1 str3" points="1009,1756 2096,855 855,1241 "/>
   <polygon class="fil1 str3" points="4335,3177 4503,3275 4587,3420 4652,3361 4982,3553 4334,5830 "/>
   <polygon class="fil1 str3" points="5425,3628 5061,3553 4334,5867 5055,5124 "/>
   <polygon class="fil1 str3" points="4335,3177 3685,3553 4334,5830 "/>
   <polygon class="fil1 str3" points="3246,3628 3610,3553 4334,5867 3616,5124 "/>
   <polygon class="fil1 str3" points="5061,3553 4982,3553 4334,5830 4334,5867 "/>
   <polygon class="fil1 str3" points="3685,3553 3610,3553 4334,5867 4334,5830 "/>
   <polygon class="fil1 str3" points="3280,633 2645,10 2732,421 "/>
   <polygon class="fil1 str3" points="3635,2526 4128,2386 4205,2247 4482,2242 4533,2421 4510,2522 4361,2421 4305,2532 4130,2571 3624,2898 3525,2850 "/>
   <polyline class="fil1 str2" points="3639,2888 4128,2386 4305,2532 "/>
   <line class="fil1 str2" x1="3662" y1="2519" x2="4130" y2= "2571" />
   <line class="fil1 str2" x1="4361" y1="2421" x2="4205" y2= "2247" />
   <line class="fil1 str2" x1="4361" y1="2421" x2="4482" y2= "2240" />
   <polyline class="fil1 str2" points="1681,5638 1545,5062 1876,4427 2015,3720 2271,3105 2939,2767 3223,2139 2987,1382 3105,819 3513,710 3932,770 4072,751 "/>
   <polyline class="fil1 str2" points="3343,1130 3105,819 2794,709 "/>
   <polyline class="fil1 str2" points="3292,1253 2987,1382 2699,1143 "/>
   <polyline class="fil1 str2" points="3579,1954 3223,2139 2426,2060 "/>
   <line class="fil1 str2" x1="2802" y1="1750" x2="3645" y2= "2527" />
   <polyline class="fil1 str2" points="2368,4587 1876,4427 1675,4323 "/>
   <polyline class="fil1 str2" points="2426,2060 2939,2767 3326,3244 2279,3108 2059,2625 2283,1960 "/>
   <line class="fil1 str2" x1="2018" y1="3711" x2="1639" y2= "3289" />
   <line class="fil1 str2" x1="3172" y1="468" x2="3513" y2= "710" />
   <line class="fil1 str2" x1="3013" y1="564" x2="3105" y2= "819" />
   <polyline class="fil1 str2" points="1905,2956 2279,3108 2466,3959 "/>
   <polyline class="fil1 str2" points="2452,4247 2018,3711 1610,3952 "/>
   <line class="fil1 str2" x1="1277" y1="2901" x2="1142" y2= "2997" />
   <line class="fil1 str2" x1="715" y1="2664" x2="458" y2= "2390" />
   <polygon class="fil1 str2" points="3331,3240 4157,3195 3556,3047 "/>
   <line class="fil1 str2" x1="2538" y1="5866" x2="1989" y2= "5672" />
   <line class="fil1 str3" x1="1686" y1="5864" x2="2001" y2= "5661" />
   <polyline class="fil1 str2" points="3885,677 3932,770 4061,957 "/>
   <polyline class="fil1 str2" points="3565,597 3513,710 3546,918 "/>
   <polyline class="fil1 str2" points="3836,1281 3718,1304 3483,1048 3337,1130 "/>
   <polyline class="fil1 str2" points="2761,3523 2279,3108 2426,2060 "/>
   <line class="fil1 str2" x1="1545" y1="5062" x2="1785" y2= "5103" />
   <line class="fil1 str2" x1="1338" y1="5103" x2="1545" y2= "5062" />
   <line class="fil1 str2" x1="1370" y1="3239" x2="1144" y2= "3441" />
   <polyline class="fil1 str3" points="3013,564 2769,597 2796,710 "/>
   <polyline class="fil1 str2" points="2675,936 2610,1050 2704,1152 "/>
   <line class="fil1 str3" x1="4166" y1="3208" x2="4268" y2= "3053" />
   <line class="fil1 str3" x1="4380" y1="3203" x2="4523" y2= "3081" />
   <polyline class="fil1 str2" points="4021,1112 3975,1205 3749,945 3486,1051 "/>
   <polyline class="fil1 str2" points="2699,1143 2638,1316 2749,1386 "/>
   <polyline class="fil1 str3" points="2792,719 2648,784 2680,926 "/>
   <polyline class="fil1 str3" points="2738,1369 2677,1542 2780,1612 "/>
   <polyline class="fil1 str3" points="2774,1613 2704,1692 2711,1817 "/>
   <polyline class="fil1 str3" points="3353,458 3126,397 3127,483 "/>
   <polyline class="fil1 str3" points="3478,452 3353,399 3320,449 "/>
   <polygon class="fil1 str3" points="4558,3559 4103,3559 4103,3597 4254,3638 4254,4484 4098,4526 4098,4568 4563,4568 4563,4529 4413,4489 4413,3634 4559,3595 "/>
   <line class="fil1 str3" x1="3518" y1="2874" x2="2941" y2= "2769" />
   <line class="fil1 str3" x1="1144" y1="3441" x2="1639" y2= "3279" />
  </g>
 </g>
</svg>
